<svg width="46" height="31" viewBox="0 0 46 31" fill="none" xmlns="http://www.w3.org/2000/svg">
<g clip-path="url(#clip0_44_776)">
<path d="M21.0686 0.5V16.6143C21.0686 24.6844 14.722 30.4951 6.8479 30.4951C4.56092 30.4951 2.08306 30.1997 0.495361 29.668V28.9033H0.832275C6.97776 28.9032 11.9609 24.2037 11.9612 17.8633C11.9612 17.6957 11.945 17.4685 11.9417 17.3555L11.928 16.8701H2.24146V0.5H21.0686Z" stroke="#AFDB58"/>
<path d="M45.4951 0.5V16.6143C45.4951 24.6844 39.1485 30.4951 31.2744 30.4951C28.9874 30.4951 26.5096 30.1997 24.9219 29.668V28.9033H25.2588C31.4043 28.9032 36.3874 24.2037 36.3877 17.8633C36.3877 17.6957 36.3715 17.4685 36.3682 17.3555L36.3545 16.8701H26.668V0.5H45.4951Z" stroke="#AFDB58"/>
</g>
<defs>
<clipPath id="clip0_44_776">
<rect width="46" height="31" fill="white"/>
</clipPath>
</defs>
</svg>
